<svg xmlns="http://www.w3.org/2000/svg" width="88" height="71" viewBox="0 0 88 71">
  <g fill="none" transform="translate(-3 -25)">
    <path fill="#999" d="M21.65625,95.03125 C23.0625,95.03125 24.5625,94.8671875 26.15625,94.5390625 C27.75,94.2109375 29.296875,93.8046875 30.796875,93.3203125 C32.296875,92.8359375 33.671875,92.2890625 34.921875,91.6796875 C36.171875,91.0703125 37.15625,90.46875 37.875,89.875 L37.875,89.875 L36.28125,85.328125 L36.234375,85.328125 C35.765625,85.515625 35.1328125,85.71875 34.3359375,85.9375 C33.5390625,86.15625 32.671875,86.359375 31.734375,86.546875 C30.796875,86.734375 29.8203125,86.890625 28.8046875,87.015625 C27.7890625,87.140625 26.84375,87.203125 25.96875,87.203125 L25.96875,87.203125 L25.921875,87.203125 C24.703125,87.203125 23.734375,87.109375 23.015625,86.921875 C22.296875,86.734375 21.7578125,86.265625 21.3984375,85.515625 C21.0390625,84.765625 20.8125,83.625 20.71875,82.09375 C20.625,80.5625 20.578125,78.453125 20.578125,75.765625 L20.578125,47.40625 L36.28125,47.40625 L36.28125,40.703125 L20.53125,40.703125 L20.4375,27.0625 L14.34375,27.0625 C14.21875,27.59375 14.015625,28.328125 13.734375,29.265625 C13.453125,30.203125 13.1484375,31.1796875 12.8203125,32.1953125 C12.4921875,33.2109375 12.15625,34.1953125 11.8125,35.1484375 C11.46875,36.1015625 11.171875,36.859375 10.921875,37.421875 C10.578125,38.328125 10.203125,39.0703125 9.796875,39.6484375 C9.390625,40.2265625 8.921875,40.703125 8.390625,41.078125 C8.203125,41.203125 7.8984375,41.3515625 7.4765625,41.5234375 C7.0546875,41.6953125 6.5859375,41.8671875 6.0703125,42.0390625 C5.5546875,42.2109375 5.0390625,42.3828125 4.5234375,42.5546875 C4.0078125,42.7265625 3.546875,42.859375 3.140625,42.953125 L3.140625,42.953125 L3.140625,47.40625 L9.84375,47.40625 L9.84375,83.921875 C9.84375,85.984375 10.109375,87.7265625 10.640625,89.1484375 C11.171875,90.5703125 11.9375,91.71875 12.9375,92.59375 C13.9375,93.46875 15.1640625,94.09375 16.6171875,94.46875 C18.0703125,94.84375 19.71875,95.03125 21.5625,95.03125 L21.5625,95.03125 L21.65625,95.03125 Z"/>
    <path fill="#333" d="M59.324,94.828 C65.8253333,94.828 70.7013333,92.896 73.952,89.032 L73.952,89.032 L73.952,94 L90.604,94 L90.604,25.736 L73.124,25.736 L73.124,48.46 C69.8733333,45.0253333 65.2733333,43.308 59.324,43.308 C54.7853333,43.308 50.6453333,44.3506667 46.904,46.436 C43.1626667,48.5213333 40.2033333,51.5113333 38.026,55.406 C35.8486667,59.3006667 34.76,63.824 34.76,68.976 C34.76,74.128 35.8486667,78.6666667 38.026,82.592 C40.2033333,86.5173333 43.1626667,89.538 46.904,91.654 C50.6453333,93.77 54.7853333,94.828 59.324,94.828 Z M63.004,80.936 C59.9373333,80.936 57.4226667,79.878 55.46,77.762 C53.4973333,75.646 52.516,72.7173333 52.516,68.976 C52.516,65.296 53.4973333,62.4133333 55.46,60.328 C57.4226667,58.2426667 59.9373333,57.2 63.004,57.2 C66.0706667,57.2 68.57,58.2426667 70.502,60.328 C72.434,62.4133333 73.4,65.296 73.4,68.976 C73.4,72.7173333 72.4186667,75.646 70.456,77.762 C68.4933333,79.878 66.0093333,80.936 63.004,80.936 Z"/>
  </g>
</svg>
